HIERARCHY
ROOT root
{
	OFFSET	0	13.1	24.9
	CHANNELS 6  Xposition Yposition Zposition Xrotation Yrotation Zrotation
	JOINT spine_1
	{
		OFFSET	0	9.99999	0
		CHANNELS 3  Xrotation Yrotation Zrotation
		JOINT spine_2
		{
			OFFSET	0	112	-10
			CHANNELS 3  Xrotation Yrotation Zrotation
			JOINT spine_3
			{
				OFFSET	0	206.5	19.3
				CHANNELS 3  Xrotation Yrotation Zrotation
				JOINT spine_4
				{
					OFFSET	0	110.4	14.6
					CHANNELS 3  Xrotation Yrotation Zrotation
					JOINT neck_1
					{
						OFFSET	0	71.8	-50.3
						CHANNELS 3  Xrotation Yrotation Zrotation
						JOINT neck_2
						{
							OFFSET	0	86.2	-25.8
							CHANNELS 3  Xrotation Yrotation Zrotation
							JOINT head_ee
							{
								OFFSET	0	179.8	-8.7
								CHANNELS 3  Xrotation Yrotation Zrotation
								End Site
								{
									OFFSET	1	0	0
								}
							}
						}
					}
					JOINT left_clavicle
					{
						OFFSET	-43.2	22.4	-70.8
						CHANNELS 3  Xrotation Yrotation Zrotation
						JOINT left_shoulder
						{
							OFFSET	-93.9	-5.79999	48.7
							CHANNELS 3  Xrotation Yrotation Zrotation
							JOINT left_elbow
							{
								OFFSET	-291.4	-30.8	15.2
								CHANNELS 3  Xrotation Yrotation Zrotation
								JOINT left_lowarm_twist
								{
									OFFSET	-110.7	-3.89999	13.6
									CHANNELS 3  Xrotation Yrotation Zrotation
									JOINT left_hand
									{
										OFFSET	-110.7	-3.89999	13.6
										CHANNELS 3  Xrotation Yrotation Zrotation
										JOINT left_ee
										{
											OFFSET	-80.8	-5.10001	12.1
											CHANNELS 3  Xrotation Yrotation Zrotation
											End Site
											{
												OFFSET	1	0	0
											}
										}
									}
								}
							}
						}
					}
					JOINT right_clavicle
					{
						OFFSET	43.2	22.4	-70.8
						CHANNELS 3  Xrotation Yrotation Zrotation
						JOINT right_shoulder
						{
							OFFSET	93.9	-5.79999	48.7
							CHANNELS 3  Xrotation Yrotation Zrotation
							JOINT right_elbow
							{
								OFFSET	291.4	-30.8	15.2
								CHANNELS 3  Xrotation Yrotation Zrotation
								JOINT right_lowarm_twist
								{
									OFFSET	110.7	-3.89999	13.6
									CHANNELS 3  Xrotation Yrotation Zrotation
									JOINT right_hand
									{
										OFFSET	110.7	-3.89999	13.6
										CHANNELS 3  Xrotation Yrotation Zrotation
										JOINT right_ee
										{
											OFFSET	80.8	-5.10001	12.1
											CHANNELS 3  Xrotation Yrotation Zrotation
											End Site
											{
												OFFSET	1	0	0
											}
										}
									}
								}
							}
						}
					}
				}
			}
		}
	}
	JOINT left_hip
	{
		OFFSET	-82.8	-127.5	0.300001
		CHANNELS 3  Xrotation Yrotation Zrotation
		JOINT left_knee
		{
			OFFSET	-28.2	-396.7	2.2
			CHANNELS 3  Xrotation Yrotation Zrotation
			JOINT left_ankle
			{
				OFFSET	-11.7	-411.3	35.4
				CHANNELS 3  Xrotation Yrotation Zrotation
				JOINT left_toes
				{
					OFFSET	0	-60	-88.6
					CHANNELS 3  Xrotation Yrotation Zrotation
					JOINT left_foot_ee
					{
						OFFSET	-22.5	-16.5	-42.2
						CHANNELS 3  Xrotation Yrotation Zrotation
						End Site
						{
							OFFSET	1	0	0
						}
					}
				}
			}
		}
	}
	JOINT right_hip
	{
		OFFSET	82.8	-127.5	0.300001
		CHANNELS 3  Xrotation Yrotation Zrotation
		JOINT right_knee
		{
			OFFSET	28.2	-396.7	2.2
			CHANNELS 3  Xrotation Yrotation Zrotation
			JOINT right_ankle
			{
				OFFSET	11.7	-411.3	35.4
				CHANNELS 3  Xrotation Yrotation Zrotation
				JOINT right_toes
				{
					OFFSET	0	-60	-88.6
					CHANNELS 3  Xrotation Yrotation Zrotation
					JOINT right_foot_ee
					{
						OFFSET	22.5	-16.5	-42.2
						CHANNELS 3  Xrotation Yrotation Zrotation
						End Site
						{
							OFFSET	1	0	0
						}
					}
				}
			}
		}
	}
}
MOTION
Frames: 8
Frame Time: 0.02
2503.74720092 775.362 -1440.71316262 -175.070169588 58.9189411422 174.695807158 3.36101 0.301379 -0.067336 3.36096 0.305053 -0.0480218 3.36072 0.308808 -0.000938408 3.36085 0.304784 -0.0496976 -29.2659 17.1691 -2.98362 -32.6461 33.7439 8.43779 -0.0 0.0 -0.0 3.1185 23.1165 6.9895 -37.793 -20.639 57.5663 0.364681 -10.2404 0.0326766 -47.924 -3.83051 4.56995 4.90457 18.3972 40.9839 -0.0 0.0 -0.0 11.8457 -16.3847 -21.2468 -6.43171 17.5482 -56.202 1.72777 40.5562 -0.638412 -55.177 4.68977 -4.9259 6.70257 -33.1061 -58.7409 0.0 0.0 0.0 3.37504 -0.0782919 -11.1908 -30.0299 0.0429203 4.55589 38.8266 -11.1875 -4.95215 -8.2628 0.0 0.0 -0.0 0.0 -0.0 9.45487 16.0864 -4.14179 -2.81736 -0.105705 -0.419409 25.2247 -27.5233 3.59168 -13.3358 0.0 0.0 0.0 0.0 0.0 
2505.74568571 775.362 -1426.05594402 -175.438467172 56.0939219277 175.132329052 3.36101 0.301379 -0.067336 3.36096 0.305053 -0.0480218 3.36072 0.308808 -0.000938408 3.36085 0.304784 -0.0496976 -29.2659 17.1691 -2.98362 -32.6461 33.7439 8.43779 -0.0 0.0 -0.0 3.1185 23.1165 6.9895 -37.793 -20.639 57.5663 0.364681 -10.2404 0.0326766 -47.924 -3.83051 4.56995 4.90457 18.3972 40.9839 -0.0 0.0 -0.0 11.8457 -16.3847 -21.2468 -6.43171 17.5482 -56.202 1.72777 40.5562 -0.638412 -55.177 4.68977 -4.9259 6.70257 -33.1061 -58.7409 0.0 0.0 0.0 3.37504 -0.0782919 -11.1908 -30.0299 0.0429203 4.55589 38.8266 -11.1875 -4.95215 -8.2628 0.0 0.0 -0.0 0.0 -0.0 9.45487 16.0864 -4.14179 -2.81736 -0.105705 -0.419409 25.2247 -27.5233 3.59168 -13.3358 0.0 0.0 0.0 0.0 0.0 
2503.51925345 776.999 -1407.1217284 -176.148817075 52.4038768467 175.564933118 3.31893 0.102883 -0.0586365 3.31893 0.106406 -0.051971 3.31883 0.113113 -0.0350531 3.31885 0.106157 -0.0524773 -28.5567 16.0806 -0.898049 -31.2624 31.0455 9.2357 -0.0 0.0 -0.0 2.48089 21.4529 6.03918 -37.4362 -18.5809 62.0837 0.492266 -13.7045 0.059155 -49.6293 -4.02841 4.66338 4.79866 20.8205 40.5521 -0.0 0.0 -0.0 11.6349 -14.6384 -21.2003 -4.81561 18.324 -55.6752 1.85302 42.5456 -0.721501 -56.8154 4.88957 -4.99105 6.52968 -33.295 -56.6905 0.0 0.0 0.0 5.56321 5.58664 -10.3377 -23.9722 0.227373 3.64495 37.0084 -12.6053 -4.82187 -9.45037 0.0 0.0 -0.0 0.0 -0.0 8.40075 11.0539 -3.86809 2.15833 0.0948779 0.317581 22.9909 -29.0981 3.34227 -16.7452 0.0 0.0 0.0 0.0 0.0 
2499.2468655 774.388 -1389.05517449 -176.657665792 49.6932787107 176.177775165 3.53981 -0.0136442 0.00771574 3.53981 -0.0141075 0.00683188 3.5398 -0.0149699 0.00464736 3.5398 -0.0140481 0.00695325 -28.2912 14.8035 -0.994586 -30.5207 28.682 8.12266 -0.0 0.0 -0.0 2.01708 20.6894 5.33312 -37.4666 -16.5038 63.8553 0.442708 -12.3696 0.0479749 -49.3172 -3.99198 4.64672 4.89183 21.0991 41.3677 -0.0 0.0 -0.0 11.4926 -15.0948 -20.8605 -3.86005 18.456 -55.6811 2.08968 45.9843 -0.886758 -56.9547 4.90664 -4.99632 6.60144 -33.1317 -57.5461 0.0 0.0 0.0 7.71404 10.8627 -9.88557 -19.6846 0.299258 2.99111 35.4983 -11.5117 -4.64879 -10.2846 0.0 0.0 -0.0 0.0 -0.0 5.8276 7.24382 -3.7521 5.21101 0.24939 0.760305 25.7184 -28.4597 3.67698 -20.762 0.0 0.0 0.0 0.0 0.0 
2487.65122038 776.02 -1372.27367154 -176.391619829 47.2753201753 176.293247964 3.68755 0.0915158 0.0440409 3.68755 0.0885279 0.049775 3.68763 0.080258 0.0622365 3.68763 0.0890799 0.0487802 -28.3947 14.372 0.2585 -30.4199 27.4085 8.98188 -0.0 0.0 -0.0 1.70653 21.517 4.93385 -36.9861 -14.436 62.6379 0.450727 -12.5866 0.0497076 -47.4169 -3.7722 4.54103 5.06689 18.4047 42.3678 -0.0 0.0 -0.0 11.3001 -15.9299 -20.3662 -3.40273 18.3761 -55.7141 2.29839 48.7001 -1.04029 -55.6193 4.74353 -4.94405 6.52081 -32.0679 -56.8934 0.0 0.0 0.0 9.63809 14.3669 -11.0446 -18.6288 0.309436 2.82943 29.954 -12.3462 -4.09313 -10.8486 0.0 0.0 -0.0 0.0 -0.0 4.21965 5.6093 -3.71757 4.21111 0.196178 0.616187 27.1648 -25.4286 3.78232 -26.1599 0.0 0.0 0.0 0.0 0.0 
2454.84555877 774.452 -1354.27608026 -176.551885155 45.2370015805 176.370569748 3.72303 0.272073 0.216579 3.72302 0.25774 0.233452 3.72408 0.220834 0.268631 3.72407 0.260488 0.230383 -29.0563 12.2583 -1.40833 -30.608 23.9344 6.14774 -0.0 0.0 -0.0 1.71069 22.6365 5.00822 -36.7131 -12.9554 59.5158 0.427797 -11.9652 0.0448322 -43.4756 -3.32814 4.29895 5.09919 13.0068 41.3502 -0.0 0.0 -0.0 11.3206 -19.8093 -19.6484 -1.24923 18.7893 -56.4842 2.44126 50.4047 -1.14903 -52.8476 4.40903 -4.82348 6.19098 -30.2954 -53.6361 0.0 0.0 0.0 12.4563 21.6928 -11.6542 -13.4511 0.316166 2.03532 13.6642 -8.84461 -1.99824 -12.3547 0.0 0.0 -0.0 0.0 -0.0 0.743148 1.65742 -4.08066 3.68089 0.168986 0.539401 31.6408 -21.6812 4.21776 -35.4314 0.0 0.0 0.0 0.0 0.0 
2455.11522934 774.452 -1353.49786233 -176.559674894 45.1083505883 176.381553044 3.72303 0.272073 0.216579 3.72302 0.25774 0.233452 3.72408 0.220834 0.268631 3.72407 0.260488 0.230383 -29.0563 12.2583 -1.40833 -30.608 23.9344 6.14774 -0.0 0.0 -0.0 1.71069 22.6365 5.00822 -36.7131 -12.9554 59.5158 0.427797 -11.9652 0.0448322 -43.4756 -3.32814 4.29895 5.09919 13.0068 41.3502 -0.0 0.0 -0.0 11.3206 -19.8093 -19.6484 -1.24923 18.7893 -56.4842 2.44126 50.4047 -1.14903 -52.8476 4.40903 -4.82348 6.19098 -30.2954 -53.6361 0.0 0.0 0.0 12.4563 21.6928 -11.6542 -13.4511 0.316166 2.03532 13.6642 -8.84461 -1.99824 -12.3547 0.0 0.0 -0.0 0.0 -0.0 0.743148 1.65742 -4.08066 3.68089 0.168986 0.539401 31.6408 -21.6812 4.21776 -35.4314 0.0 0.0 0.0 0.0 0.0 
2455.55961091 774.452 -1352.22763729 -176.57229013 44.8981444766 176.399392641 3.72303 0.272073 0.216579 3.72302 0.25774 0.233452 3.72408 0.220834 0.268631 3.72407 0.260488 0.230383 -29.0563 12.2583 -1.40833 -30.608 23.9344 6.14774 -0.0 0.0 -0.0 1.71069 22.6365 5.00822 -36.7131 -12.9554 59.5158 0.427797 -11.9652 0.0448322 -43.4756 -3.32814 4.29895 5.09919 13.0068 41.3502 -0.0 0.0 -0.0 11.3206 -19.8093 -19.6484 -1.24923 18.7893 -56.4842 2.44126 50.4047 -1.14903 -52.8476 4.40903 -4.82348 6.19098 -30.2954 -53.6361 0.0 0.0 0.0 12.4563 21.6928 -11.6542 -13.4511 0.316166 2.03532 13.6642 -8.84461 -1.99824 -12.3547 0.0 0.0 -0.0 0.0 -0.0 0.743148 1.65742 -4.08066 3.68089 0.168986 0.539401 31.6408 -21.6812 4.21776 -35.4314 0.0 0.0 0.0 0.0 0.0 
